<svg height="296" viewBox="294 158 558 296" width="558" xmlns="http://www.w3.org/2000/svg" xmlns:xlink="http://www.w3.org/1999/xlink"><mask id="a" fill="#fff"><path d="m.903391.451002h555.248762v294h-555.248762z" fill="#fff" fill-rule="evenodd"/></mask><g fill="none" fill-rule="evenodd" transform="translate(294.847847 158.548998)"><g mask="url(#a)"><g transform="translate(-246.468136 55.812716)"><path d="m491.312077 53.5022769s22.640473-3.0843954 25.051358 3.8226277c4.479958 10.5233502-13.1284 13.3387458-13.1284 13.3387458l-16.439322-1.320728z" fill="#953f81"/><path d="m486.768236 1.97094276c1.352166.16559481 4.913395 10.00524094 5.48149 14.59627184.454484 3.6728943.63575 7.6053994.493499 9.7315584-.731352 10.9311465-2.194055 32.7934395-2.194055 32.7934395l-6.339853 3.2794023s-3.968171-8.7088219-1.580805-18.5312507c2.387365-9.8224289-21.534126-.3865402-19.278653-13.8648438l.84745-10.0561401.713962-8.4603448c.240684-2.86798204 3.822044-10.80439681 6.649575-11.35048648 0 0 10.13826 1.24159589 15.20739 1.86239384z" fill="#90c37d"/><path d="m454.835714 60.2535632c17.381832-4.9633483 30.59518-6.4944219 36.476768-6.7512863 2.04278-.0889924 3.610259 1.7940057 3.165297 3.7902668l-14.542166 65.3345723s-11.453725 5.83507-18.864364 7.748406-12.800746 1.866818-12.800746 1.866818l24.509313-64.3819499c.578451-1.5169158-.732164-3.0823728-2.32796-2.7749446-6.62791 1.2721867-9.380607 2.1258404-12.477137 2.772922z" fill="#953f81"/><path d="m520.144752 66.00591-82.374593 39.435764" fill="#00adc6"/><g fill="#90c37d"><path d="m505.567574 70.2766473-89.425606 20.6487336-1.064284-7.2040779 88.217199-21.310888z"/><path d="m458.051198 67.9329032-73.420189 16.6915818-1.064284-7.2040779 71.493519-17.2170206z"/></g></g></g><g fill="#121b21" mask="url(#a)" stroke="#121b21" stroke-width=".25"><g transform="translate(216.734663 70.245519)"><path d="m9.84917887 16.221834c-.74717486.0161764-4.16170717.657986-4.4904816.8293684 1.01955049 1.6722902 1.92149417 1.7999526 3.29299069.4507533.39348004-.386922.75548167-.8057597 1.19749091-1.2801217m-4.78471723-1.7999526c-.26581762.3143468-.25270162.6431213-.31172363.9434777-.17794041.9041297-.15258281.9395429.80226208.9189945 1.51008893-.0323528 2.94366786-.5202681 4.41659479-.7747185.03803642-.006558.05945922-.1110488.10711402-.2067956-.0664544-.0948724-.13247162-.2168512-.22384643-.314784-.26188282-.2802453-.52420284-.5618021-.80444807-.8236849-.70083166-.6562373-.77122087-.6518653-1.44232293.0026232-1.1555197 1.1271017-1.1555197 1.1271017-2.54362983.2548876m-1.48167093 2.7906479c.55043485-.9802025.64137246-1.8476074.81013167-2.6931523.0341016-.1700708.0271064-.3493228.07038921-.5163332.15914081-.6081453.37774083-.6763485.84292167-.2741244.05290121.0454688.09749561.0996816.14821082.1468992.93604528.8744.93385928.8717768 1.88476937-.0734496.19630281-.1954285.40178683-.3904197.63306565-.5395049.31565843-.2041724.63874926-.2181628.96140289.0441572.67984606.5530581 1.23815051 1.2180393 1.79907821 1.8825834.247018.292924.1998004.5937176-.0332273.8490425-.84204723.9242408-1.6587369 1.8891413-2.7176354 2.5707362-.93866848.6042104-1.71251255.4621204-2.52483022-.3362068-.24789243-.2435205-.52245405-.4734877-.71525927-.7572305-.24876682-.3668108-.55393245-.4922873-1.1590173-.3034168"/><path d="m12.104213 5.36519516c.4100936.0205484.8516656-.09050041 1.2840565-.21991162.4935988-.14821082.7327472-.50365445.7108872-1.0239225-.0091812-.22209762-.0800076-.42014923-.30604-.49665924-.1761916-.05989641-.3392672-.0144276-.4507532.15739201-.2544505.39173124-.8079457.45949725-.9517845 1.0265457-.1031792.40790763-.4922873.39697763-.7992017.059022-.0660172-.0725752-.0638312-.21291642-.1342204-.27499882-.2373996-.20723282-.494036-.08525401-.6404981.09224921-.1941168.23477642.0664544.36812243.2299673.47523644.3042912.19892602.6558.21379082 1.0575869.20504682m-.3296489.50933804c-.4354512.02798081-.9504729-.0209856-1.3649385-.40484723-.45687404-.42320964-.45075324-1.0243597.091812-1.30285612.7034549-.36156443 1.3024189-.93342209 2.1142994-1.0820701.1359692-.0249204.2658176-.08306801.4013496-.10930001.6982085-.13684361 1.3610038.10667681 1.5315118.55743005.2478924.65405126-.0581476 1.57523174-.6592977 1.91799657-.6234472.35544364-1.3216557.39041964-2.1147366.42364684"/><path d="m2.36427048 4.99340024c.64006086.27543603 1.27706131.34057883 1.86903017-.10011881.25139002-.18755881.49141284-.43807444.27718482-.79002047-.18537282-.30560282-.87090248-.33970443-1.1192321-.0581476-.10930001.12416481-.16701041.29991922-.22559522.46080884-.14077841.38386163-.41752604.53076085-.81013167.49709644-.24483202-.15957801-.12460201-.49709644-.32134203-.69558526-.18362402.42933044-.18362402.42933044.33008603.68596686m.54300245.66541846c-.46255764.02492041-.91068769-.0323528-1.31378612-.27762202-.63175406-.38429884-.68859006-.96140289-.15345722-1.46899213.54518845-.51677045 2.39847942-.81100608 3.10586908-.49316165.66716726.29948203.74892367 1.22765771.13684362 1.74355376-.51021245.42976764-1.1301621.52201685-1.77546936.49622204"/><path d="m7.93253762 9.61547906c-.31522123.99288124-1.43795093 1.66835534-2.30623021 1.40384934-.76466287-.2330276-1.1196693-1.04621971-.55043485-1.52101895.95178449-.79482967.95265889-1.88520657 1.19923971-2.91568706.07694721-.32134203-.037162-.71744527.38386163-.92292929.36418764.24352043.27150123.60508486.21247922.93342209-.10449081.58235045-.24964122 1.1572685-.36637363 1.73699575-.10930001.54300245-.47698524.91156209-.82062447 1.30897692-.34976003.40397284-.17531722.80575964.35150883.86521884.45337644.0515896.79351807-.205484 1.1410921-.441572.23827402-.16176401.36243883-.52682605.75548167-.44725564"/><path d="m13.5370486.36524435c.1044909 0 .2098561-.0083068.3130353.0017488.212042.0205484.4446324.0511524.4293304.33402083-.0113672.20460962-.194554.26975242-.3764292.28942642-1.1760681.12591361-2.3525734.25139003-3.5295159.37205724-.1434017.0148648-.2798081-.02360881-.3283373-.18581002-.05202677-.17313122.0773844-.27281282.1963028-.31478403.2277813-.08088201.4682413-.13509481.7073897-.17050801.8604097-.12853682 1.7225682-.24439483 2.5838522-.36506204.0013116.013116.0030604.02579481.004372.03891081"/><path d="m.11518232 2.05554714c.0751984-.31915603.30385402-.35325763.49491044-.40703324 1.28187052-.36069003 2.61489344-.43938604 3.91512635-.70083166.16176402-.03279.37511764-.06295681.43632564.16132681.06077081.22253482-.12809961.30997483-.29204962.35675524-.26712923.0769472-.54256525.13203441-.81712688.17750321-.96358888.15914082-1.92805217.31565843-2.89382706.46124604-.26144562.03934801-.53382125.19411682-.84335887-.0489664"/></g></g><g mask="url(#a)"><g transform="translate(.007618 140.979268)"><path d="m10.6776955.76193102h533.7174005l-5.609985 152.79370598h-522.4974305z" fill="#567f9f"/><path d="m.93957634.76193102h553.20308966l-.355533 22.70473798h-552.49202402z" fill="#00aec5"/></g></g><g fill="#54595d"><path d="m400.436634 92.1147729 72.160256 3.5677722-.000002 46.0424029h-72.160254z" mask="url(#a)"/><path d="m360.187325 137.596814 94.947087-2.064067v6.192201h-94.947087z" mask="url(#a)"/><g mask="url(#a)"><g transform="matrix(-1 0 0 1 206.969796 91.441658)"><path d="m50.0930788.82492134h72.1602562l-.000002 49.61017496h-72.1602542z"/><path d="m.08782849 45.7178766 94.94708611-1.4749815v6.1922012h-94.94708611z"/></g></g></g><g mask="url(#a)"><g transform="translate(236.922089 -5.673542)"><path d="m110.751861 147.513369 6.992461-44.087715-17.337586-3.274462-17.9685129-11.3215562 4.4646398 59.0071852z" fill="#953f81"/><g transform="matrix(.73135369789 .68199835786 -.68199835786 .73135369789 43.73154172959 14.93479888679)"><path d="m45.2559173 33.7850871c-6.8888594 1.0157567-18.7249465 2.6768062-22.1025861-.5366614-2.6355939-2.5074893-22.37304257-30.48035259-22.37304257-30.48035259l5.92062933-2.75256582 21.62699424 27.59627571 61.6038887-10.339489c32.8731461-5.6532056 11.5381921 7.2775286 1.6114976 9.079443-15.8129283 2.870396-31.7367259 5.2878679-46.2873812 7.4333501z" fill="#90c37d"/><path d="m91.3179509 17.0572328c15.9414821-2.0388774 31.9476631-3.6683531 46.6129771-5.0006686 33.229835-3.01836467 32.929458-6.80434669 40.942266-.9489979 3.362557 2.4575414-1.659608 10.4340424-1.659608 10.4340424l-25.383537 21.8506179c-4.32373 3.7219464-3.406475 8.0650979.215723 9.1511173s1.010026 1.4243014-4.835699 2.6694444c-5.845724 1.2451431-7.990759-2.6694444-7.990759-2.6694444-1.608149-2.4953199 3.222105-10.1056349 10.806397-17.0142569l20.371439-18.5565873-77.9450914 9.2360724c-33.1239607 3.9250104-11.1415027-7.8714174-1.1341077-9.1513393z" fill="#90c37d"/><path d="m56.8182035 22.78465 34.7082148-5.7443938 42.2689457-4.9268241 2.278141 9.1371241-77.0346059 10.4567207z" fill="#953f81"/></g></g><g fill="#90c37d"><path d="m20.1069916 1.86089017c4.9207161 0 7.3223425 2.82005635 8.5896666 4.93619823 1.267324 2.11614188 1.9206259 4.4664985 1.9253772 5.7109328.0522707 13.6902499.156812 41.0707497.156812 41.0707497-3.1695372 2.0522462-7.3584085 1.5100885-9.9018942-1.2807142l-.3050243-.3350903.0000005-15.5849981c-7.2114731 2.2908344-15.12647157 2.2872449-15.63177416-5.262228l-.62508162-9.3379144-.52566988-7.8559521c-.1784562-2.6642346 2.47552793-7.80308617 4.90562624-9.58934672 2.43009832-1.78626055 6.49124562-2.47163691 11.41196162-2.47163691z" transform="matrix(-.9993908323 .0348994995 .0348994995 .9993908323 360.26308417215 37.90867540546)"/><path d="m36.3371377 18.0965666h-5.2493924c-2.639614 0-4.5657534 1.215825-4.3040803 2.7046549l1.2779032 7.2708289c.262536 1.4937396 2.6068041 2.7046549 5.2598062 2.7046549h3.0157633z" transform="matrix(.9945219 .10452846 -.10452846 .9945219 301.37894969761 33.86052234127)"/></g></g><path d="m285.337458 8.09549065c-.814561-2.04475291-3.780163-4.25011393-3.780163-4.25011393s-1.735318-1.16416133-2.79806-1.46824784c-1.062742-.30408652-1.978217.10159276-1.978217.10159276l3.429136 3.87673476-5.492757-4.31143603s-2.412515-1.89469508-4.761368-1.75232405c-2.348854.14237103-4.039729 1.69126754-3.353684 4.50820622s3.546831 6.35918926 3.546831 6.35918926 2.748959 3.1791466 5.371384 4.6692729 5.510009 1.5138019 5.510009 1.5138019l4.506792-3.5058241s.614658-3.6960989-.199903-5.74085185z" fill="#90c37d" mask="url(#a)"/><g fill="#567f9f" mask="url(#a)"><g transform="matrix(.99756405 .06975647 -.06975647 .99756405 218.388867 44.669429)"><path d="m7.73860449 12.0286388c2.28378681 13.1443944 5.75608421 16.0069952 22.24082171 19.0449773l.0722677-6.425291c.0927105-8.3166999-5.5061478-15.54611348-13.5295423-17.73879083-.0691508-.01892927-.1381716-.03842144-.2076254-.05860648-.1267834-.0363852-.2532639-.07151462-.3787485-.10582123-8.25401368-2.24414124-16.23056329 4.39769414-15.5614465 12.92525754l.81322474 10.3662465s1.92677079-15.9450017 6.55104855-18.0079718"/><path d="m19.9502586.72655866c-1.9741445 1.21624114-3.3239122 5.06982072-.1764057 7.32322502 3.1475065 2.25340432 10.8546149 9.18038162 12.5933609 4.85926862 1.7380531-4.32068002-.1852522-6.82507488-2.0389293-8.40090517-5.8082633-4.93813273-8.4033185-4.99769965-10.3780259-3.78158847z"/></g></g><g fill="#121b21" mask="url(#a)" stroke="#121b21"><g transform="translate(322.809883 49.28528)"><path d="m32.1330789 10.7148462c-.9521158.3458541-1.9937468.2922806-2.9953672.5025056-.3539918.074596-.5445506.2631203-.5289532.6747545.0447575 1.2023513.7893609 2.149042 2.0968248 2.6047555 1.1596282.4034964 2.0907216.1437668 2.8332905-.9114271.4224845-.6001584 1.1636971-1.2952572.8117398-1.9984938-.368911-.7378219-1.424783-.5926989-2.2175347-.8720947m-14.1101665-.79207351c-1.2864414.02576951-1.6241577.56421681-1.2389712 1.62415771.4828393 1.3271301 2.134801 2.3165439 3.7813374 2.2650048 1.4912413-.046792 2.9506097-1.1684441 3.4171735-2.5559291.2515919-.747316-.1993746-.8178431-.719512-.8951516-1.8106476-.2712581-3.6735124.1281694-5.2400277-.43808181m9.3672192.24277601c-.0461139-.46452948.3282223-1.29118844-.2827865-1.52582667-.6930644-.2658329-1.0551939.5825267-1.4369896 1.05655017-.3329693.4129904-.5221718.9432999-.7696948 1.4254611-.2468449.4814831-.4543573.9860231-.7344312 1.44784-.9494033 1.5665153-3.1588002 2.6664668-4.6751328 2.3551981-1.8493019-.3790831-3.6511336-2.2568671-3.8125321-4.1326166-.0718834-.82665897-.4340129-1.31831421-1.1284336-1.61262922-2.106997-.89311718-3.9983439-2.15378905-5.90664439-3.39276027-1.28508509-.8347967-2.76886672-1.2206613-4.17737423-1.77402775-.90668009-.35602621-1.84116413-.64966307-2.65019131-1.21727058-.25633888-.18038661-.65576638-.34246331-.47537976-.72493718.17903032-.38111758.55811347-.20954686.85175033-.08544629 1.29525726.546585 2.55864171 1.18065074 3.88373736 1.64043316 2.16938639.75274113 4.1461796 1.85065816 6.0592271 3.09166381 1.1413183.74053453 2.4080935 1.23083348 3.6470647 1.77199332.2454885.10714694.5208155.21361573.7805451.20954686 2.3260379-.03661984 4.587652.62864057 6.9130118.60965251.7432471-.00542517 1.3929102-.11325025 1.9049098-.6950988.1783521-.20276541.378405-.39061162.5913426-.55607904 1.5000571-1.17047856 2.1354791-.98466678 2.4637013.85107219.1593642.88701387.6266062 1.01111444 1.3488308.99280452 1.6200888-.04001056 3.2354306-.26718919 4.8636571-.03933242 1.1650534.16343298 1.3691751.33907258 1.0680787 1.41054198-.3234753 1.1528468-.8090272 2.2514419-1.5841472 3.1771101-1.7272357 2.0622394-5.0582848 1.5888941-6.2124878-.8619225-.368911-.7832577-.6225373-2.3470605-.5296314-3.4219205" stroke-width=".125" transform="matrix(.9945219 -.10452846 .10452846 .9945219 -.817331 1.989054)"/><path d="m28.6696552 13.0631819c0 .8497195.0482219 1.7034999-.0131975 2.548651-.0659878.911139-.4664828 1.1451418-1.2964061.7634279-.8542879-.3928811-1.7304026-.676121-2.6552467-.8278929-.1994861-.0329938-.4426257-.1192856-.4309509-.3471972.0167507-.3253705.3197869-.3492276.5527745-.302021.6730754.1350212 1.3390443.3050666 2.0065361.4674981.8954034.2187748 1.0400689.1538022 1.0365157-.7466771-.0055836-1.3720382.1685227-2.7501676-.1456807-4.1161147-.1365439-.59338237-.0720789-1.2111295-.0121823-1.81618668.0279179-.28679304.1091336-.59236721.4746044-.58526084.3669935.00659878.4629296.30405138.4431333.60201159-.0487295.72688076-.0588814 1.44513233.0177659 2.17607393.0751246.720282.0162432 1.4552843.0162432 2.1836879z" stroke-linecap="round" stroke-linejoin="round" stroke-width=".25"/><path d="m21.7502086 2.93916537c.073728.00393966.2999773-.00168843.5200356.03151731.2431336.03770821.4029714.20092286.430549.44574483.0292661.25945501-.1288833.44236797-.3635747.48626709-.3945292.07260237-.7975005.1232552-1.1987834.13282295-1.2691346.02926608-2.5011238.1969832-3.6402495.81044515-.1941691.1046825-.4153531.18009892-.6325974.21330466-.1018685.01575865-.2746509-.073728-.3230525-.16490308-.0517784-.09736598-.0332057-.27296243.0230752-.37820773.1806617-.34049953.5397339-.45249854.8616608-.60501982 1.0040515-.47557371 2.9356124-.92075573 4.3229369-.97197136" stroke-width=".35"/><path d="m34.1346111 2.93916537c.073728.00393966.2999773-.00168843.5200357.03151731.2431335.03770821.4029713.20092286.4305489.44574483.0292661.25945501-.1288832.44236797-.3635747.48626709-.3945292.07260237-.7975005.1232552-1.1987834.13282295-1.2691346.02926608-2.5011238.1969832-3.6402494.81044515-.1941692.1046825-.4153532.18009892-.6325975.21330466-.1018685.01575865-.2746509-.073728-.3230524-.16490308-.0517785-.09736598-.0332058-.27296243.0230751-.37820773.1806618-.34049953.539734-.45249854.8616608-.60501982 1.0040515-.47557371 2.9356124-.92075573 4.3229369-.97197136" stroke-width=".35"/><path d="m20.7527026 10.7297287c.378405.1173192.6232154.3472104.569642.8090272-.0739178.6374565-.7235809 1.120974-1.4051168 1.0151833-.3580607-.0549297-.593377-.2699017-.5615042-.6503412.0434013-.514034.8944735-1.2233739 1.396979-1.1738693" stroke-width=".125" transform="matrix(.9945219 -.10452846 .10452846 .9945219 -1.106105 2.190049)"/><path d="m31.8542382 10.3500847c.3465322-.0250914.6157558.0901933.5926989.4082434-.0318728.4435069-.2271786.8612443-.7507067.8863357-.3234752.0149192-.6761107-.1125721-.6645823-.5282751.0149192-.5269188.4055308-.7032365.8225901-.766304" stroke-width=".125" transform="matrix(.9945219 -.10452846 .10452846 .9945219 -.975551 3.377956)"/><path d="m21.1570906 18.2840346c2.5673761 2.2063866 5.3049532 1.8785402 8.1042437.5373049.3431815-.1645821.6514277-.4018375.9797306-.5980476.2975005-.1783678.6127691-.3147334.8275002.0949671.1844681.3526539.0293611.6386002-.2778934.8346966-2.6256852 1.6812645-5.4056759 2.3499039-8.4213469 1.1805862-.5179289-.201122-1.2331837-.9645585-1.5070078-1.3686386-.230584-.340271.168157-.7902866.2947736-.6808686z" stroke-linecap="round" stroke-linejoin="round" stroke-width=".25"/></g></g></g></svg>