<svg width="558px" height="296px" viewBox="294 158 558 296" version="1.1" xmlns="http://www.w3.org/2000/svg" xmlns:xlink="http://www.w3.org/1999/xlink">
    <defs>
        <rect id="path-1" x="0.903391143" y="0.4510018" width="555.248762" height="294"></rect>
    </defs>
    <g id="support-monsters" stroke="none" stroke-width="1" fill="none" fill-rule="evenodd" transform="translate(294.847847, 158.548998)">
        <mask id="mask-2" fill="white">
            <use xlink:href="#path-1"></use>
        </mask>
        <g id="Mask"></g>
        <g id="Group-49" mask="url(#mask-2)">
            <g transform="translate(14.388770, 207.288451) scale(-1, 1) translate(-14.388770, -207.288451) translate(-246.611230, 55.288451)" id="Group-63">
                <g transform="translate(-0.000000, 0.173884)">
                    <g id="Page-1" transform="translate(261.356906, 151.350381) scale(-1, 1) translate(-261.356906, -151.350381) translate(0.856906, 0.350381)">
                        <path d="M491.312077,53.5022769 C491.312077,53.5022769 513.95255,50.4178815 516.363435,57.3249046 C520.843393,67.8482548 503.235035,70.6636504 503.235035,70.6636504 L486.795713,69.3429224 L491.312077,53.5022769 Z" id="Fill-1" fill="#953F81"></path>
                        <path d="M486.768236,1.97094276 C488.120402,2.13653757 491.681631,11.9761837 492.249726,16.5672146 C492.70421,20.2401089 492.885476,24.172614 492.743225,26.298773 C492.011873,37.2299195 490.54917,59.0922125 490.54917,59.0922125 L484.209317,62.3716148 C484.209317,62.3716148 480.241146,53.6627929 482.628512,43.8403641 C485.015877,34.0179352 461.094386,43.4538239 463.349859,29.9755203 L464.197309,19.9193802 L464.911271,11.4590354 C465.151955,8.59105336 468.733315,0.654638591 471.560846,0.108548921 C471.560846,0.108548921 481.699106,1.35014481 486.768236,1.97094276 Z" id="Fill-3" fill="#90C37D"></path>
                        <path d="M454.835714,60.2535632 C472.217546,55.2902149 485.430894,53.7591413 491.312482,53.5022769 C493.355262,53.4132845 494.922741,55.2962826 494.477779,57.2925437 L479.935613,122.627116 C479.935613,122.627116 468.481888,128.462186 461.071249,130.375522 C453.66061,132.288858 448.270503,132.24234 448.270503,132.24234 L472.779816,67.8603901 C473.358267,66.3434743 472.047652,64.7780173 470.451856,65.0854455 C463.823946,66.3576322 461.071249,67.2112859 457.974719,67.8583675 L454.835714,60.2535632 Z" id="Fill-17" fill="#953F81"></path>
                        <path d="M520.144752,66.00591 L437.770159,105.441674" id="Fill-28" fill="#00ADC6"></path>
                        <polygon id="Path-2" fill="#90C37D" points="505.567574 70.2766473 416.141968 90.9253809 415.077684 83.721303 503.294883 62.410415"></polygon>
                        <polygon id="Path-2" fill="#90C37D" points="458.051198 67.9329032 384.631009 84.624485 383.566725 77.4204071 455.060244 60.2033865"></polygon>
                        <path d="" id="Path-3" stroke="#979797"></path>
                    </g>
                </g>
            </g>
        </g>
        <g id="Face" mask="url(#mask-2)" stroke="#121B21" stroke-width="0.25" fill="#121B21">
            <g transform="translate(216.734663, 70.245519)">
                <path d="M9.84917887,16.221834 C9.10200401,16.2380104 5.6874717,16.87982 5.35869727,17.0512024 C6.37824776,18.7234926 7.28019144,18.851155 8.65168796,17.5019557 C9.045168,17.1150337 9.40716963,16.696196 9.84917887,16.221834 M5.06446164,14.4218814 C4.79864402,14.7362282 4.81176002,15.0650027 4.75273801,15.3653591 C4.5747976,16.2694888 4.6001552,16.304902 5.55500009,16.2843536 C7.06508902,16.2520008 8.49866795,15.7640855 9.97159488,15.5096351 C10.0096313,15.5030771 10.0310541,15.3985863 10.0787089,15.3028395 C10.0122545,15.2079671 9.94623728,15.0859883 9.85486247,14.9880555 C9.59297965,14.7078102 9.33065963,14.4262534 9.0504144,14.1643706 C8.34958274,13.5081333 8.27919353,13.5125053 7.60809147,14.1669938 C6.45257177,15.2940955 6.45257177,15.2940955 5.06446164,14.4218814 M3.58279071,17.2125293 C4.13322556,16.2323268 4.22416317,15.3649219 4.39292238,14.519377 C4.42702398,14.3493062 4.42002878,14.1700542 4.46331159,14.0030438 C4.6224524,13.3948985 4.84105242,13.3266953 5.30623326,13.7289194 C5.35913447,13.7743882 5.40372887,13.828601 5.45444408,13.8758186 C6.39048936,14.7502186 6.38830336,14.7475954 7.33921345,13.802369 C7.53551626,13.6069405 7.74100028,13.4119493 7.9722791,13.2628641 C8.28793753,13.0586917 8.61102836,13.0447013 8.93368199,13.3070213 C9.61352805,13.8600794 10.1718325,14.5250606 10.7327602,15.1896047 C10.9797782,15.4825287 10.9325606,15.7833223 10.6995329,16.0386472 C9.85748567,16.962888 9.040796,17.9277885 7.9818975,18.6093834 C7.04322902,19.2135938 6.26938495,19.0715038 5.45706728,18.2731766 C5.20917485,18.0296561 4.93461323,17.7996889 4.74180801,17.5159461 C4.49304119,17.1491353 4.18787556,17.0236588 3.58279071,17.2125293" id="Fill-1"></path>
                <path d="M12.104213,5.36519516 C12.5143066,5.38574356 12.9558786,5.27469475 13.3882695,5.14528354 C13.8818683,4.99707272 14.1210167,4.64162909 14.0991567,4.12136104 C14.0899755,3.89926342 14.0191491,3.70121181 13.7931167,3.6247018 C13.6169251,3.56480539 13.4538495,3.6102742 13.3423635,3.78209381 C13.087913,4.17382505 12.5344178,4.24159106 12.390579,4.80863951 C12.2873998,5.21654714 11.8982917,5.20561714 11.5913773,4.86766151 C11.5253601,4.79508631 11.5275461,4.65474509 11.4571569,4.59266269 C11.2197573,4.38542987 10.9631209,4.50740868 10.8166588,4.6849119 C10.622542,4.91968832 10.8831132,5.05303433 11.0466261,5.16014834 C11.3509173,5.35907436 11.7024261,5.37393916 12.104213,5.36519516 M11.7745641,5.8745332 C11.3391129,5.90251401 10.8240912,5.8535476 10.4096256,5.46968597 C9.95275156,5.04647633 9.95887236,4.44532627 10.5014376,4.16682985 C11.2048925,3.80526542 11.8038565,3.23340776 12.615737,3.08475975 C12.7517062,3.05983935 12.8815546,3.00169174 13.0170866,2.97545974 C13.7152951,2.83861613 14.3780904,3.08213655 14.5485984,3.53288979 C14.7964908,4.18694105 14.4904508,5.10812153 13.8893007,5.45088636 C13.2658535,5.80633 12.567645,5.841306 11.7745641,5.8745332" id="Fill-4"></path>
                <path d="M2.36427048,4.99340024 C3.00433134,5.26883627 3.64133179,5.33397907 4.23330065,4.89328143 C4.48469067,4.70572262 4.72471349,4.45520699 4.51048547,4.10326096 C4.32511265,3.79765814 3.63958299,3.76355653 3.39125337,4.04511336 C3.28195336,4.16927817 3.22424296,4.34503258 3.16565815,4.5059222 C3.02487974,4.88978383 2.74813211,5.03668305 2.35552648,5.00301864 C2.11069446,4.84344063 2.23092447,4.5059222 2.03418445,4.30743338 C1.85056043,4.73676382 1.85056043,4.73676382 2.36427048,4.99340024 M2.90727293,5.6588187 C2.44471529,5.68373911 1.99658524,5.6264659 1.59348681,5.38119668 C0.961732752,4.99689784 0.904896746,4.41979379 1.44002959,3.91220455 C1.98521804,3.3954341 3.83850901,3.10119847 4.54589867,3.4190429 C5.21306593,3.71852493 5.29482234,4.64670061 4.68274229,5.16259666 C4.17252984,5.5923643 3.55258019,5.68461351 2.90727293,5.6588187" id="Fill-6"></path>
                <path d="M7.93253762,9.61547906 C7.61731639,10.6083603 6.49458669,11.2838344 5.62630741,11.0193284 C4.86164454,10.7863008 4.50663811,9.97310869 5.07587256,9.49830945 C6.02765705,8.70347978 6.02853145,7.61310288 6.27511227,6.58262239 C6.35205948,6.26128036 6.23795027,5.86517712 6.6589739,5.6596931 C7.02316154,5.90321353 6.93047513,6.26477796 6.87145312,6.59311519 C6.76696231,7.17546564 6.6218119,7.75038369 6.50507949,8.33011094 C6.39577948,8.87311339 6.02809425,9.24167303 5.68445502,9.63908786 C5.33469499,10.0430607 5.5091378,10.4448475 6.03596385,10.5043067 C6.48934029,10.5558963 6.82948192,10.2988227 7.17705595,10.0627347 C7.41532997,9.90097069 7.53949478,9.53590865 7.93253762,9.61547906" id="Fill-8"></path>
                <path d="M13.5370486,0.365244346 C13.6415395,0.365244346 13.7469047,0.356937545 13.8500839,0.366993146 C14.0621259,0.387541548 14.2947163,0.418145551 14.2794143,0.701013976 C14.2680471,0.905623595 14.0848603,0.970766401 13.9029851,0.990440402 C12.726917,1.11635401 11.5504117,1.24183043 10.3734692,1.36249764 C10.2300675,1.37736244 10.0936611,1.33888883 10.0451319,1.17668762 C9.99310513,1.0035564 10.1225163,0.903874795 10.2414347,0.861903591 C10.469216,0.781021583 10.709676,0.726808779 10.9488244,0.691395575 C11.8092341,0.562858764 12.6713926,0.447000753 13.5326766,0.326333543 C13.5339882,0.339449544 13.535737,0.352128345 13.5370486,0.365244346" id="Fill-10"></path>
                <path d="M0.115182315,2.05554714 C0.190380722,1.73639111 0.419036343,1.70228951 0.61009276,1.6485139 C1.89196328,1.28782387 3.2249862,1.20912786 4.52521911,0.947682239 C4.68698313,0.914892236 4.90033675,0.884725433 4.96154475,1.10900905 C5.02231556,1.33154387 4.83344514,1.41898388 4.66949513,1.46576429 C4.4023659,1.54271149 4.12692988,1.5977987 3.85236825,1.6432675 C2.88877937,1.80240832 1.92431608,1.95892593 0.958541191,2.10451354 C0.697095568,2.14386155 0.424719943,2.29863036 0.115182315,2.05554714" id="Fill-13"></path>
            </g>
        </g>
        <g id="Group-4" mask="url(#mask-2)">
            <g transform="translate(0.007618, 140.979268)" id="Rectangle-5">
                <polygon fill="#567F9F" points="10.6776955 0.761931015 544.395096 0.761931015 538.785111 153.555637 16.2876805 153.555637"></polygon>
                <polygon fill="#00AEC5" points="0.93957634 0.761931015 554.142666 0.761931015 553.787133 23.466669 1.29510898 23.466669"></polygon>
            </g>
        </g>
        <polygon id="Rectangle-6" fill="#54595D" mask="url(#mask-2)" points="400.436634 92.1147729 472.59689 95.6825451 472.596888 141.724948 400.436634 141.724948"></polygon>
        <polygon id="Rectangle-2" fill="#54595D" mask="url(#mask-2)" points="360.187325 137.596814 455.134412 135.532747 455.134412 141.724948 360.187325 141.724948"></polygon>
        <g id="Group-14" mask="url(#mask-2)" fill="#54595D">
            <g transform="translate(145.469796, 116.941658) scale(-1, 1) translate(-145.469796, -116.941658) translate(83.969796, 91.441658)">
                <polygon id="Rectangle-6" points="50.0930788 0.824921344 122.253335 0.824921344 122.253333 50.4350963 50.0930788 50.4350963"></polygon>
                <polygon id="Rectangle-2" points="0.0878284912 45.7178766 95.0349146 44.2428951 95.0349146 50.4350963 0.0878284912 50.4350963"></polygon>
            </g>
        </g>
        <g id="Group-74" mask="url(#mask-2)">
            <g transform="translate(236.594768, -6.894311)">
                <g id="Group-65" transform="translate(0.080388, 0.319267)">
                    <g id="Group-30" transform="translate(0.246933, 0.901502)">
                        <polygon id="Fill-12" fill="#953F81" points="110.751861 147.513369 117.744322 103.425654 100.406736 100.151192 82.4382231 88.8296358 86.9028629 147.836821"></polygon>
                        <g id="Group-22" transform="translate(90.455938, 97.209414) rotate(-7.000000) translate(-90.455938, -97.209414) translate(10.455938, 9.709414)">
                            <g id="Group-66" transform="translate(-0.000000, -0.000000)">
                                <g id="Group-67" transform="translate(0.000000, 0.000000)">
                                    <g id="Group-69" transform="translate(80.373668, 87.469451) rotate(50.000000) translate(-80.373668, -87.469451) translate(-10.126332, 59.469451)">
                                        <path d="M45.2559173,33.7850871 C38.3670579,34.8008438 26.5309708,36.4618933 23.1533312,33.2484257 C20.5177373,30.7409364 0.780288625,2.76807311 0.780288625,2.76807311 L6.70091796,0.01550729 L28.3279122,27.611783 L89.9318009,17.272294 C122.804947,11.6190884 101.469993,24.5498226 91.5432985,26.351737 C75.7303702,29.222133 59.8065726,31.6396049 45.2559173,33.7850871 L45.2559173,33.7850871 Z" id="Fill-5" fill="#90C37D"></path>
                                        <path d="M91.3179509,17.0572328 C107.259433,15.0183554 123.265614,13.3888797 137.930928,12.0565642 C171.160763,9.03819953 170.860386,5.25221751 178.873194,11.1075663 C182.235751,13.5651077 177.213586,21.5416087 177.213586,21.5416087 L151.830049,43.3922266 C147.506319,47.114173 148.423574,51.4573245 152.045772,52.5433439 L152.045772,52.5433439 C152.045772,52.5433439 153.055798,53.9676453 147.210073,55.2127883 C141.364349,56.4579314 139.219314,52.5433439 139.219314,52.5433439 L139.219314,52.5433439 C137.611165,50.048024 142.441419,42.437709 150.025711,35.529087 L170.39715,16.9724997 L92.4520586,26.2085721 C59.3280979,30.1335825 81.3105559,18.3371547 91.3179509,17.0572328 L91.3179509,17.0572328 Z" id="Fill-5" fill="#90C37D"></path>
                                        <polygon id="Fill-8" fill="#953F81" points="56.8182035 22.78465 91.5264183 17.0402562 133.795364 12.1134321 136.073505 21.2505562 59.0388991 31.7072769"></polygon>
                                    </g>
                                </g>
                            </g>
                        </g>
                    </g>
                </g>
                <g id="Group-73" transform="translate(106.157818, 73.760363) scale(-1, 1) rotate(-6.000000) translate(-106.157818, -73.760363) translate(87.657818, 45.260363)">
                    <path d="M20.1069916,1.86089017 C25.0277077,1.86089017 27.4293341,4.68094652 28.6966582,6.7970884 C29.9639822,8.91323028 30.6172841,11.2635869 30.6220354,12.5080212 C30.6743061,26.1982711 30.7788474,53.5787709 30.7788474,53.5787709 C27.6093102,55.6310171 23.4204389,55.0888594 20.8769532,52.2980567 L20.5719289,51.9629664 L20.5719294,36.3779683 C13.3604563,38.6688027 5.44545783,38.6652132 4.94015524,31.1157403 L4.31507362,21.7778259 L3.78940374,13.9218738 C3.61094754,11.2576392 6.26493167,6.11878763 8.69502998,4.33252708 C11.1251283,2.54626653 15.1862756,1.86089017 20.1069916,1.86089017 Z" id="Fill-14" fill="#90C37D" transform="translate(17.279860, 28.339742) rotate(8.000000) translate(-17.279860, -28.339742) "></path>
                    <path d="M36.3371377,18.0965666 L31.0877453,18.0965666 C28.4481313,18.0965666 26.5219919,19.3123916 26.783665,20.8012215 L28.0615682,28.0720504 C28.3241042,29.56579 30.6683723,30.7767053 33.3213744,30.7767053 L36.3371377,30.7767053 L36.3371377,18.0965666 L36.3371377,18.0965666 Z" id="Rectangle-5" fill="#90C37D" transform="translate(31.548502, 24.436636) scale(-1, 1) translate(-31.548502, -24.436636) "></path>
                </g>
            </g>
        </g>
        <path d="M285.337458,8.09549065 C284.522897,6.05073774 281.557295,3.84537672 281.557295,3.84537672 C281.557295,3.84537672 279.821977,2.68121539 278.759235,2.37712888 C277.696493,2.07304236 276.781018,2.47872164 276.781018,2.47872164 L280.210154,6.3554564 L274.717397,2.04402037 C274.717397,2.04402037 272.304882,0.14932529 269.956029,0.291696321 C267.607175,0.434067352 265.9163,1.98296386 266.602345,4.79990254 C267.28839,7.61684122 270.149176,11.1590918 270.149176,11.1590918 C270.149176,11.1590918 272.898135,14.3382384 275.52056,15.8283647 C278.142985,17.318491 281.030569,17.3421666 281.030569,17.3421666 L285.537361,13.8363425 C285.537361,13.8363425 286.152019,10.1402436 285.337458,8.09549065 Z" id="Path-4" fill="#90C37D" mask="url(#mask-2)"></path>
        <g id="Group-13" mask="url(#mask-2)" fill="#567F9F">
            <g transform="translate(234.231352, 61.816314) rotate(4.000000) translate(-234.231352, -61.816314) translate(217.231352, 45.816314)">
                <path d="M7.73860449,12.0286388 C10.0223913,25.1730332 13.4946887,28.035634 29.9794262,31.0736161 L30.0516939,24.6483251 C30.1444044,16.3316252 24.5455461,9.10221162 16.5221516,6.90953427 C16.4530008,6.890605 16.38398,6.87111283 16.3145262,6.85092779 C16.1877428,6.81454259 16.0612623,6.77941317 15.9357777,6.74510656 C7.68176402,4.50096532 -0.294785589,11.1428007 0.374331199,19.6703641 L1.18755594,30.0366106 C1.18755594,30.0366106 3.11432673,14.0916089 7.73860449,12.0286388" id="Fill-24"></path>
                <path d="M19.9502586,0.726558663 C17.9761141,1.9427998 16.6263464,5.79637938 19.7738529,8.04978368 C22.9213594,10.303188 30.6284678,17.2301653 32.3672138,12.9090523 C34.1052669,8.58837228 32.1819616,6.08397742 30.3282845,4.50814713 C24.5200212,-0.429985603 21.924966,-0.489552519 19.9502586,0.726558663 Z" id="Fill-28"></path>
            </g>
        </g>
        <g id="Group-15" mask="url(#mask-2)" stroke="#121B21" fill="#121B21">
            <g transform="translate(322.809883, 49.285280)">
                <path d="M32.1330789,10.7148462 C31.1809631,11.0607003 30.1393321,11.0071268 29.1377117,11.2173518 C28.7837199,11.2919478 28.5931611,11.4804721 28.6087585,11.8921063 C28.653516,13.0944576 29.3981194,14.0411483 30.7055833,14.4968618 C31.8652115,14.9003582 32.7963049,14.6406286 33.5388738,13.5854347 C33.9613583,12.9852763 34.7025709,12.2901775 34.3506136,11.5869409 C33.9817026,10.849119 32.9258306,10.994242 32.1330789,10.7148462 M18.0229124,9.92277269 C16.736471,9.9485422 16.3987547,10.4869895 16.7839412,11.5469304 C17.2667805,12.8740605 18.9187422,13.8634743 20.5652786,13.8119352 C22.0565199,13.7651432 23.5158883,12.6434911 23.9824521,11.2560061 C24.234044,10.5086901 23.7830775,10.438163 23.2629401,10.3608545 C21.4522925,10.0895964 19.5894277,10.4890239 18.0229124,9.92277269 M27.3901316,10.1655487 C27.3440177,9.70101922 27.7183539,8.87436026 27.1073451,8.63972203 C26.4142807,8.37388913 26.0521512,9.22224873 25.6703555,9.6962722 C25.3373862,10.1092626 25.1481837,10.6395721 24.9006607,11.1217333 C24.6538158,11.6032164 24.4463034,12.1077564 24.1662295,12.5695733 C23.2168262,14.1360886 21.0074293,15.2360401 19.4910967,14.9247714 C17.6417948,14.5456883 15.8399631,12.6679043 15.6785646,10.7921548 C15.6066812,9.96549583 15.2445517,9.47384059 14.550131,9.17952558 C12.443134,8.2864084 10.5517871,7.02573653 8.64348661,5.78676531 C7.35840152,4.95196861 5.87461989,4.56610401 4.46611238,4.01273756 C3.55943229,3.65671135 2.62494825,3.36307449 1.81592107,2.79546698 C1.55958219,2.61508037 1.16015469,2.45300367 1.34054131,2.0705298 C1.51957163,1.68941222 1.89865478,1.86098294 2.19229164,1.98508351 C3.4875489,2.53166851 4.75093335,3.16573425 6.076029,3.62551667 C8.24541539,4.3782578 10.2222086,5.47617483 12.1352561,6.71718048 C13.2765744,7.45771501 14.5433496,7.94801396 15.7823208,8.4891738 C16.0278093,8.59632074 16.3031363,8.70278953 16.5628659,8.69872066 C18.8889038,8.66210082 21.1505179,9.32736123 23.4758777,9.30837317 C24.2191248,9.302948 24.8687879,9.19512292 25.3807875,8.61327437 C25.5591396,8.41050896 25.7591925,8.22266275 25.9721301,8.05719533 C27.4721872,6.88671677 28.1076092,7.07252855 28.4358314,8.90826752 C28.5951956,9.79528139 29.0624376,9.91938196 29.7846622,9.90107204 C31.404751,9.86106148 33.0200928,9.63388285 34.6483193,9.86173962 C35.8133727,10.0251726 36.0174944,10.2008122 35.716398,11.2722816 C35.3929227,12.4251284 34.9073708,13.5237235 34.1322508,14.4493917 C32.4050151,16.5116311 29.073966,16.0382858 27.919763,13.5874692 C27.550852,12.8042115 27.2972257,11.2404087 27.3901316,10.1655487" id="Fill-1" stroke-width="0.125" transform="translate(18.568044, 8.792329) rotate(-6.000000) translate(-18.568044, -8.792329) "></path>
                <path d="M28.6696552,13.0631819 C28.6696552,13.9129014 28.7178771,14.7666818 28.6564577,15.6118329 C28.5904699,16.5229719 28.1899749,16.7569747 27.3600516,16.3752608 C26.5057637,15.9823797 25.629649,15.6991398 24.7048049,15.5473679 C24.5053188,15.5143741 24.2621792,15.4280823 24.273854,15.2001707 C24.2906047,14.8748002 24.5936409,14.8509431 24.8266285,14.8981497 C25.4997039,15.0331709 26.1656728,15.2032163 26.8331646,15.3656478 C27.728568,15.5844226 27.8732335,15.51945 27.8696803,14.6189707 C27.8640967,13.2469325 28.038203,11.8688031 27.7239996,10.502856 C27.5874557,9.90947363 27.6519207,9.2917265 27.7118173,8.68666932 C27.7397352,8.39987628 27.8209509,8.09430211 28.1864217,8.10140848 C28.5534152,8.10800726 28.6493513,8.40545986 28.629555,8.70342007 C28.5808255,9.43030083 28.5706736,10.1485524 28.6473209,10.879494 C28.7224455,11.599776 28.6635641,12.3347783 28.6635641,13.0631819 L28.6696552,13.0631819 Z" id="Fill-1" stroke-width="0.25" stroke-linecap="round" stroke-linejoin="round"></path>
                <path d="M21.7502086,2.93916537 C21.8239366,2.94310503 22.0501859,2.93747694 22.2702442,2.97068268 C22.5133778,3.00839089 22.6732156,3.17160554 22.7007932,3.41642751 C22.7300593,3.67588252 22.5719099,3.85879548 22.3372185,3.9026946 C21.9426893,3.97529697 21.539718,4.0259498 21.1384351,4.03551755 C19.8693005,4.06478363 18.6373113,4.23250075 17.4981856,4.8459627 C17.3040165,4.9506452 17.0828325,5.02606162 16.8655882,5.05926736 C16.7637197,5.07502601 16.5909373,4.98553936 16.5425357,4.89436428 C16.4907573,4.7969983 16.50933,4.62140185 16.5656109,4.51615655 C16.7462726,4.17565702 17.1053448,4.06365801 17.4272717,3.91113673 C18.4313232,3.43556302 20.3628841,2.990381 21.7502086,2.93916537" id="Fill-1" stroke-width="0.35"></path>
                <path d="M34.1346111,2.93916537 C34.2083391,2.94310503 34.4345884,2.93747694 34.6546468,2.97068268 C34.8977803,3.00839089 35.0576181,3.17160554 35.0851957,3.41642751 C35.1144618,3.67588252 34.9563125,3.85879548 34.721621,3.9026946 C34.3270918,3.97529697 33.9241205,4.0259498 33.5228376,4.03551755 C32.253703,4.06478363 31.0217138,4.23250075 29.8825882,4.8459627 C29.688419,4.9506452 29.467235,5.02606162 29.2499907,5.05926736 C29.1481222,5.07502601 28.9753398,4.98553936 28.9269383,4.89436428 C28.8751598,4.7969983 28.8937325,4.62140185 28.9500134,4.51615655 C29.1306752,4.17565702 29.4897474,4.06365801 29.8116742,3.91113673 C30.8157257,3.43556302 32.7472866,2.990381 34.1346111,2.93916537" id="Fill-1" stroke-width="0.35"></path>
                <path d="M20.7527026,10.7297287 C21.1311076,10.8470479 21.375918,11.0769391 21.3223446,11.5387559 C21.2484268,12.1762124 20.5987637,12.6597299 19.9172278,12.5539392 C19.5591671,12.4990095 19.3238508,12.2840375 19.3557236,11.903598 C19.3991249,11.389564 20.2501971,10.6802241 20.7527026,10.7297287" id="Fill-4" stroke-width="0.125" transform="translate(20.341262, 11.647893) rotate(-6.000000) translate(-20.341262, -11.647893) "></path>
                <path d="M31.8542382,10.3500847 C32.2007704,10.3249933 32.469994,10.440278 32.4469371,10.7583281 C32.4150643,11.201835 32.2197585,11.6195724 31.6962304,11.6446638 C31.3727552,11.659583 31.0201197,11.5320917 31.0316481,11.1163887 C31.0465673,10.5894699 31.4371789,10.4131522 31.8542382,10.3500847" id="Fill-6" stroke-width="0.125" transform="translate(31.739844, 10.996290) rotate(-6.000000) translate(-31.739844, -10.996290) "></path>
                <path d="M21.1570906,18.2840346 C23.7244667,20.4904212 26.4620438,20.1625748 29.2613343,18.8213395 C29.6045158,18.6567574 29.912762,18.419502 30.2410649,18.2232919 C30.5385654,18.0449241 30.853834,17.9085585 31.0685651,18.318259 C31.2530332,18.6709129 31.0979262,18.9568592 30.7906717,19.1529556 C28.1649865,20.8342201 25.3849958,21.5028595 22.3693248,20.3335418 C21.8513959,20.1324198 21.1361411,19.3689833 20.862317,18.9649032 C20.631733,18.6246322 21.030474,18.1746166 21.1570906,18.2840346 L21.1570906,18.2840346 Z" id="Fill-1" stroke-width="0.25" stroke-linecap="round" stroke-linejoin="round"></path>
            </g>
        </g>
    </g>
</svg>
